<svg width="44" height="40" viewBox="0 0 44 40" fill="none" xmlns="http://www.w3.org/2000/svg">
    <path d="M4 40C2.9 40 1.95833 39.6083 1.175 38.825C0.391667 38.0417 0 37.1 0 36V12C0 10.9 0.391667 9.95833 1.175 9.175C1.95833 8.39167 2.9 8 4 8H10.3L14 4H26V8H15.75L12.1 12H4V36H36V18H40V36C40 37.1 39.6083 38.0417 38.825 38.825C38.0417 39.6083 37.1 40 36 40H4ZM36 12V8H32V4H36V0H40V4H44V8H40V12H36ZM20 33C22.5 33 24.625 32.125 26.375 30.375C28.125 28.625 29 26.5 29 24C29 21.5 28.125 19.375 26.375 17.625C24.625 15.875 22.5 15 20 15C17.5 15 15.375 15.875 13.625 17.625C11.875 19.375 11 21.5 11 24C11 26.5 11.875 28.625 13.625 30.375C15.375 32.125 17.5 33 20 33ZM20 29C18.6 29 17.4167 28.5167 16.45 27.55C15.4833 26.5833 15 25.4 15 24C15 22.6 15.4833 21.4167 16.45 20.45C17.4167 19.4833 18.6 19 20 19C21.4 19 22.5833 19.4833 23.55 20.45C24.5167 21.4167 25 22.6 25 24C25 25.4 24.5167 26.5833 23.55 27.55C22.5833 28.5167 21.4 29 20 29Z" fill="#4A90E2"/>
</svg>
