<svg width="24" height="24" viewBox="0 0 24 24" fill="none" xmlns="http://www.w3.org/2000/svg">
    <path d="M9.92859 21.9285H13.3572" stroke="#4A90E2" stroke-width="3" stroke-linecap="round" stroke-linejoin="round"/>
    <path d="M18.5 9.0715C18.5 7.25287 17.7776 5.50873 16.4916 4.22277C15.2056 2.9368 13.4615 2.21436 11.6429 2.21436C9.82424 2.21436 8.0801 2.9368 6.79413 4.22277C5.50817 5.50873 4.78572 7.25287 4.78572 9.0715V15.0715C4.78572 15.7535 4.51481 16.4075 4.03257 16.8898C3.55033 17.372 2.89628 17.6429 2.21429 17.6429H21.0714C20.3895 17.6429 19.7354 17.372 19.2532 16.8898C18.7709 16.4075 18.5 15.7535 18.5 15.0715V9.0715Z" stroke="#4A90E2" stroke-width="3" stroke-linecap="round" stroke-linejoin="round"/>
    <path d="M0.5 8.84857C0.500924 7.21682 0.890059 5.60869 1.63526 4.15704C2.38046 2.70539 3.46035 1.45186 4.78571 0.5" stroke="#4A90E2" stroke-linecap="round" stroke-linejoin="round"/>
    <path d="M22.7857 8.84857C22.7848 7.21682 22.3957 5.60869 21.6505 4.15704C20.9052 2.70539 19.8254 1.45186 18.5 0.5" stroke="#4A90E2" stroke-linecap="round" stroke-linejoin="round"/>
</svg>
