<svg width="22" height="24" viewBox="0 0 22 24" fill="none" xmlns="http://www.w3.org/2000/svg">
    <path d="M21.0665 11.3199L10.8665 21.6056C10.4708 22.0089 9.9986 22.3292 9.47761 22.5478C8.95662 22.7665 8.39727 22.8791 7.83225 22.8791C7.26724 22.8791 6.70788 22.7665 6.1869 22.5478C5.66591 22.3292 5.19373 22.0089 4.79797 21.6056L1.74654 18.5027C0.947728 17.6914 0.5 16.5985 0.5 15.4599C0.5 14.3213 0.947728 13.2284 1.74654 12.417L12.6151 1.51417C12.9338 1.19281 13.313 0.937745 13.7308 0.763681C14.1487 0.589617 14.5968 0.5 15.0494 0.5C15.502 0.5 15.9501 0.589617 16.3679 0.763681C16.7857 0.937745 17.165 1.19281 17.4837 1.51417L18.7008 2.73131C19.0222 3.05004 19.2772 3.42924 19.4513 3.84705C19.6254 4.26485 19.715 4.71298 19.715 5.16559C19.715 5.61821 19.6254 6.06634 19.4513 6.48414C19.2772 6.90195 19.0222 7.28115 18.7008 7.59988L9.06654 17.2684C8.90717 17.4291 8.71757 17.5567 8.50867 17.6437C8.29977 17.7307 8.0757 17.7755 7.8494 17.7755C7.62309 17.7755 7.39902 17.7307 7.19012 17.6437C6.98122 17.5567 6.79162 17.4291 6.63225 17.2684L6.03225 16.6513C5.87158 16.4919 5.74404 16.3023 5.65701 16.0934C5.56998 15.8845 5.52517 15.6605 5.52517 15.4342C5.52517 15.2079 5.56998 14.9838 5.65701 14.7749C5.74404 14.566 5.87158 14.3764 6.03225 14.217L12.4951 7.80559" stroke="#BDBDBD" stroke-linecap="round" stroke-linejoin="round"/>
</svg>
