<svg width="28" height="25" viewBox="0 0 28 25" fill="none" xmlns="http://www.w3.org/2000/svg">
    <path d="M20.6667 0C24.7173 0 28 3.33333 28 8C28 17.3333 18 22.6667 14.6667 24.6667C12.0307 23.0853 5.22267 19.4173 2.492 13.3347L0 13.3333V10.6667H1.61333C1.432 9.81867 1.33333 8.93067 1.33333 8C1.33333 3.33333 4.66667 0 8.66667 0C11.1467 0 13.3333 1.33333 14.6667 2.66667C16 1.33333 18.1867 0 20.6667 0ZM20.6667 2.66667C19.232 2.66667 17.68 3.42667 16.552 4.552L14.6667 6.43733L12.7813 4.552C11.6533 3.42667 10.1013 2.66667 8.66667 2.66667C6.08 2.66667 4 4.87467 4 8C4 8.91333 4.12 9.80267 4.356 10.6667H7.24533L10 6.07467L14 12.7413L15.2453 10.6667H21.3333V13.3333H16.7547L14 17.9253L10 11.2587L8.75467 13.3333H5.47733C6.53067 15.1653 8.124 16.8907 10.1933 18.5373C11.1867 19.3267 12.2467 20.064 13.4213 20.804C13.82 21.056 14.2147 21.2973 14.6667 21.5667C15.1187 21.2973 15.5133 21.056 15.912 20.8053C17.0867 20.064 18.1467 19.3267 19.1387 18.5373C23.1133 15.3773 25.3333 11.924 25.3333 8C25.3333 4.85333 23.284 2.66667 20.6667 2.66667Z" fill="#4A90E2"/>
</svg>
