<svg width="15" height="21" viewBox="0 0 15 21" fill="none" xmlns="http://www.w3.org/2000/svg">
    <path fill-rule="evenodd" clip-rule="evenodd" d="M7.5 20.9831C3.3645 20.9831 0 17.6186 0 13.4831C0 9.61763 6.1935 1.22737 6.89925 0.284625C7.18275 -0.094875 7.81725 -0.094875 8.10075 0.284625C8.8065 1.22737 15 9.61763 15 13.4831C15 17.6186 11.6355 20.9831 7.5 20.9831ZM12.5865 14.6126C12.7402 14.2279 12.5528 13.7914 12.168 13.6376C11.781 13.4831 11.3467 13.6721 11.1937 14.0561C10.5862 15.5756 9.1365 16.5581 7.5 16.5581C7.086 16.5581 6.75 16.8934 6.75 17.3081C6.75 17.7221 7.086 18.0581 7.5 18.0581C9.7545 18.0581 11.751 16.7051 12.5865 14.6126Z" fill="#D0021B"/>
</svg>
