<svg width="36" height="36" viewBox="0 0 36 36" fill="none" xmlns="http://www.w3.org/2000/svg">
    <path d="M33.1765 12H31.7647V10.5882C31.7647 8.64212 30.1814 7.05882 28.2353 7.05882H7.76471C6.9708 7.05882 6.23739 7.32247 5.64706 7.76661V4.83791C6.66635 4.53339 7.41177 3.58758 7.41177 2.47059C7.41177 1.10831 6.30346 0 4.94118 0C3.57889 0 2.47059 1.10831 2.47059 2.47059C2.47059 3.58758 3.216 4.53339 4.23529 4.83791V10.5882V12H2.82353C1.26664 12 0 13.2666 0 14.8235V16.9412C0 18.4981 1.26664 19.7647 2.82353 19.7647H4.23529V21.8824C4.23529 23.8285 5.81859 25.4118 7.76471 25.4118H12V27.5294H8.47059C7.30292 27.5294 6.35294 28.4794 6.35294 29.6471V30.4129C4.35254 30.7501 2.82353 32.4935 2.82353 34.5882V35.2941C2.82353 35.6839 3.13962 36 3.52941 36C4.69892 36 31.4082 36 32.4706 36C32.8604 36 33.1765 35.6839 33.1765 35.2941V34.5882C33.1765 32.4935 31.6475 30.7501 29.6471 30.4129V29.6471C29.6471 28.4794 28.6971 27.5294 27.5294 27.5294H24V25.4118H28.2353C30.1814 25.4118 31.7647 23.8285 31.7647 21.8824V19.7647H33.1765C34.7334 19.7647 36 18.4981 36 16.9412V14.8235C36 13.2666 34.7334 12 33.1765 12ZM4.23529 18.3529H2.82353C2.04508 18.3529 1.41176 17.7196 1.41176 16.9412V14.8235C1.41176 14.0451 2.04508 13.4118 2.82353 13.4118H4.23529V18.3529ZM6.35294 34.5882H4.23529C4.23529 33.275 5.13649 32.1683 6.35294 31.8541V34.5882ZM29.6471 31.8541C30.8635 32.1683 31.7647 33.275 31.7647 34.5882H29.6471V31.8541ZM4.94118 3.52941C4.35734 3.52941 3.88235 3.05442 3.88235 2.47059C3.88235 1.88675 4.35734 1.41176 4.94118 1.41176C5.52501 1.41176 6 1.88675 6 2.47059C6 3.05442 5.52501 3.52941 4.94118 3.52941ZM24 34.5882H12V32.4706H24V34.5882ZM27.5294 28.9412C27.9186 28.9412 28.2353 29.2578 28.2353 29.6471C28.2353 30.982 28.2353 33.709 28.2353 34.5882H25.4118V31.7647C25.4118 31.3749 25.0957 31.0588 24.7059 31.0588H11.2941C10.9043 31.0588 10.5882 31.3749 10.5882 31.7647V34.5882H7.76471C7.76471 33.7211 7.76471 30.9509 7.76471 29.6471C7.76471 29.2578 8.08136 28.9412 8.47059 28.9412C10.4714 28.9412 25.5577 28.9412 27.5294 28.9412ZM13.4118 27.5294V25.4118H22.5882V27.5294H13.4118ZM30.3529 21.8824C30.3529 23.05 29.403 24 28.2353 24C27.0796 24 8.92002 24 7.76471 24C6.59704 24 5.64706 23.05 5.64706 21.8824C5.64706 20.8874 5.64706 12.2396 5.64706 10.5882C5.64706 9.42057 6.59704 8.47059 7.76471 8.47059H28.2353C29.403 8.47059 30.3529 9.42057 30.3529 10.5882C30.3529 15.1204 30.3529 20.5715 30.3529 21.8824ZM34.5882 16.9412C34.5882 17.7196 33.9549 18.3529 33.1765 18.3529H31.7647V13.4118H33.1765C33.9549 13.4118 34.5882 14.0451 34.5882 14.8235V16.9412ZM26.1176 10.5882H9.88235C8.71468 10.5882 7.76471 11.5382 7.76471 12.7059V19.7647C7.76471 20.9324 8.71468 21.8824 9.88235 21.8824H26.1176C27.2853 21.8824 28.2353 20.9324 28.2353 19.7647V12.7059C28.2353 11.5382 27.2853 10.5882 26.1176 10.5882ZM26.8235 19.7647C26.8235 20.1539 26.5069 20.4706 26.1176 20.4706H9.88235C9.49313 20.4706 9.17647 20.1539 9.17647 19.7647V12.7059C9.17647 12.3167 9.49313 12 9.88235 12H26.1176C26.5069 12 26.8235 12.3167 26.8235 12.7059V19.7647ZM12.7059 14.1176C11.5382 14.1176 10.5882 15.0676 10.5882 16.2353C10.5882 17.403 11.5382 18.3529 12.7059 18.3529C13.8736 18.3529 14.8235 17.403 14.8235 16.2353C14.8235 15.0676 13.8736 14.1176 12.7059 14.1176ZM12.7059 16.9412C12.3167 16.9412 12 16.6245 12 16.2353C12 15.8461 12.3167 15.5294 12.7059 15.5294C13.0951 15.5294 13.4118 15.8461 13.4118 16.2353C13.4118 16.6245 13.0951 16.9412 12.7059 16.9412ZM23.2941 14.1176C22.1264 14.1176 21.1765 15.0676 21.1765 16.2353C21.1765 17.403 22.1264 18.3529 23.2941 18.3529C24.4618 18.3529 25.4118 17.403 25.4118 16.2353C25.4118 15.0676 24.4618 14.1176 23.2941 14.1176ZM23.2941 16.9412C22.9049 16.9412 22.5882 16.6245 22.5882 16.2353C22.5882 15.8461 22.9049 15.5294 23.2941 15.5294C23.6833 15.5294 24 15.8461 24 16.2353C24 16.6245 23.6833 16.9412 23.2941 16.9412Z" fill="url(#paint0_linear_509_1905)"/>
    <defs>
        <linearGradient id="paint0_linear_509_1905" x1="0" y1="18" x2="36" y2="18" gradientUnits="userSpaceOnUse">
            <stop stop-color="#4371C2"/>
            <stop offset="0.022" stop-color="#486EC1"/>
            <stop offset="0.222" stop-color="#6D58BC"/>
            <stop offset="0.421" stop-color="#8A46B8"/>
            <stop offset="0.618" stop-color="#9E3AB4"/>
            <stop offset="0.813" stop-color="#AB33B3"/>
            <stop offset="1" stop-color="#AF30B2"/>
        </linearGradient>
    </defs>
</svg>
