<svg width="20" height="20" viewBox="0 0 20 20" fill="none" xmlns="http://www.w3.org/2000/svg">
    <path d="M11.9286 4.78561V3.35704C11.9286 2.97816 11.778 2.61479 11.5101 2.34689C11.2422 2.07898 10.8789 1.92847 10.5 1.92847H9.07141" stroke="#333333" stroke-linecap="round" stroke-linejoin="round"/>
    <path d="M5.5 14.7856H1.92857C1.54969 14.7856 1.18633 14.6351 0.918419 14.3672C0.65051 14.0993 0.5 13.7359 0.5 13.357V3.35704C0.5 2.97816 0.65051 2.61479 0.918419 2.34689C1.18633 2.07898 1.54969 1.92847 1.92857 1.92847H3.35714" stroke="#333333" stroke-linecap="round" stroke-linejoin="round"/>
    <path d="M17.6428 7.64282H10.5C9.711 7.64282 9.07141 8.28242 9.07141 9.07139V17.6428C9.07141 18.4318 9.711 19.0714 10.5 19.0714H17.6428C18.4318 19.0714 19.0714 18.4318 19.0714 17.6428V9.07139C19.0714 8.28242 18.4318 7.64282 17.6428 7.64282Z" stroke="#333333" stroke-linecap="round" stroke-linejoin="round"/>
    <path d="M9.42857 0.5H3L3.58571 2.81429C3.6214 2.96918 3.70873 3.10732 3.83336 3.20598C3.95798 3.30465 4.11248 3.35796 4.27143 3.35714H8.15714C8.31609 3.35796 8.47059 3.30465 8.59521 3.20598C8.71984 3.10732 8.80718 2.96918 8.84286 2.81429L9.42857 0.5Z" stroke="#333333" stroke-linecap="round" stroke-linejoin="round"/>
    <path d="M11.9286 11.9285H16.2143" stroke="#333333" stroke-linecap="round" stroke-linejoin="round"/>
    <path d="M11.9286 14.7856H16.2143" stroke="#333333" stroke-linecap="round" stroke-linejoin="round"/>
</svg>
