<svg width="32" height="32" viewBox="0 0 32 32" fill="none" xmlns="http://www.w3.org/2000/svg">
    <path d="M29.9965 6.81934C30.4445 6.36583 30.6958 5.754 30.6958 5.11648C30.6958 4.47896 30.4445 3.86713 29.9965 3.41362L28.2822 1.69934C27.8344 1.28488 27.2467 1.05464 26.6365 1.05464C26.0263 1.05464 25.4386 1.28488 24.9908 1.69934L15.8479 10.7279L6.81934 1.69934C6.36583 1.25127 5.754 1 5.11648 1C4.47896 1 3.86713 1.25127 3.41362 1.69934L1.69934 3.41362C1.25127 3.86713 1 4.47896 1 5.11648C1 5.754 1.25127 6.36583 1.69934 6.81934L10.8422 15.9622L1.69934 24.9908C1.25127 25.4443 1 26.0561 1 26.6936C1 27.3311 1.25127 27.943 1.69934 28.3965L3.41362 30.1108C3.86713 30.5588 4.47896 30.8101 5.11648 30.8101C5.754 30.8101 6.36583 30.5588 6.81934 30.1108L15.8479 20.9679L24.9908 29.9965C25.4443 30.4445 26.0561 30.6958 26.6936 30.6958C27.3311 30.6958 27.943 30.4445 28.3965 29.9965L30.1108 28.2822C30.5588 27.8287 30.8101 27.2169 30.8101 26.5793C30.8101 25.9418 30.5588 25.33 30.1108 24.8765L20.9679 15.8479L29.9965 6.81934Z" stroke="white" stroke-width="2" stroke-linecap="round" stroke-linejoin="round"/>
</svg>
