<svg width="24" height="24" viewBox="0 0 24 24" fill="none" xmlns="http://www.w3.org/2000/svg">
    <path d="M22.5 5.25H22.3935C22.2298 5.89319 21.8565 6.4635 21.3325 6.87083C20.8085 7.27816 20.1637 7.4993 19.5 7.4993C18.8363 7.4993 18.1915 7.27816 17.6675 6.87083C17.1435 6.4635 16.7702 5.89319 16.6065 5.25H1.5C1.30109 5.25 1.11032 5.17098 0.969669 5.03033C0.829018 4.88968 0.75 4.69891 0.75 4.5C0.75 4.30109 0.829018 4.11032 0.969669 3.96967C1.11032 3.82902 1.30109 3.75 1.5 3.75H16.6065C16.7702 3.10681 17.1435 2.5365 17.6675 2.12917C18.1915 1.72184 18.8363 1.5007 19.5 1.5007C20.1637 1.5007 20.8085 1.72184 21.3325 2.12917C21.8565 2.5365 22.2298 3.10681 22.3935 3.75H22.5C22.6989 3.75 22.8897 3.82902 23.0303 3.96967C23.171 4.11032 23.25 4.30109 23.25 4.5C23.25 4.69891 23.171 4.88968 23.0303 5.03033C22.8897 5.17098 22.6989 5.25 22.5 5.25ZM19.5 3C19.2033 3 18.9133 3.08797 18.6666 3.2528C18.42 3.41762 18.2277 3.65189 18.1142 3.92598C18.0006 4.20006 17.9709 4.50166 18.0288 4.79264C18.0867 5.08361 18.2296 5.35088 18.4393 5.56066C18.6491 5.77044 18.9164 5.9133 19.2074 5.97118C19.4983 6.02906 19.7999 5.99935 20.074 5.88582C20.3481 5.77229 20.5824 5.58003 20.7472 5.33336C20.912 5.08668 21 4.79667 21 4.5C21 4.10218 20.842 3.72064 20.5607 3.43934C20.2794 3.15804 19.8978 3 19.5 3ZM1.5 11.25H1.6065C1.7702 10.6068 2.14354 10.0365 2.66754 9.62917C3.19153 9.22184 3.83631 9.0007 4.5 9.0007C5.16369 9.0007 5.80847 9.22184 6.33246 9.62917C6.85646 10.0365 7.2298 10.6068 7.3935 11.25H22.5C22.6989 11.25 22.8897 11.329 23.0303 11.4697C23.171 11.6103 23.25 11.8011 23.25 12C23.25 12.1989 23.171 12.3897 23.0303 12.5303C22.8897 12.671 22.6989 12.75 22.5 12.75H7.3935C7.2298 13.3932 6.85646 13.9635 6.33246 14.3708C5.80847 14.7782 5.16369 14.9993 4.5 14.9993C3.83631 14.9993 3.19153 14.7782 2.66754 14.3708C2.14354 13.9635 1.7702 13.3932 1.6065 12.75H1.5C1.30109 12.75 1.11032 12.671 0.969669 12.5303C0.829018 12.3897 0.75 12.1989 0.75 12C0.75 11.8011 0.829018 11.6103 0.969669 11.4697C1.11032 11.329 1.30109 11.25 1.5 11.25ZM4.5 13.5C4.79667 13.5 5.08668 13.412 5.33335 13.2472C5.58003 13.0824 5.77229 12.8481 5.88582 12.574C5.99935 12.2999 6.02906 11.9983 5.97118 11.7074C5.9133 11.4164 5.77044 11.1491 5.56066 10.9393C5.35088 10.7296 5.08361 10.5867 4.79263 10.5288C4.50166 10.4709 4.20006 10.5006 3.92597 10.6142C3.65189 10.7277 3.41762 10.92 3.2528 11.1666C3.08797 11.4133 3 11.7033 3 12C3 12.3978 3.15804 12.7794 3.43934 13.0607C3.72064 13.342 4.10217 13.5 4.5 13.5ZM1.5 18.75H9.1065C9.2702 18.1068 9.64354 17.5365 10.1675 17.1292C10.6915 16.7218 11.3363 16.5007 12 16.5007C12.6637 16.5007 13.3085 16.7218 13.8325 17.1292C14.3565 17.5365 14.7298 18.1068 14.8935 18.75H22.5C22.6989 18.75 22.8897 18.829 23.0303 18.9697C23.171 19.1103 23.25 19.3011 23.25 19.5C23.25 19.6989 23.171 19.8897 23.0303 20.0303C22.8897 20.171 22.6989 20.25 22.5 20.25H14.8935C14.7298 20.8932 14.3565 21.4635 13.8325 21.8708C13.3085 22.2782 12.6637 22.4993 12 22.4993C11.3363 22.4993 10.6915 22.2782 10.1675 21.8708C9.64354 21.4635 9.2702 20.8932 9.1065 20.25H1.5C1.30109 20.25 1.11032 20.171 0.969669 20.0303C0.829018 19.8897 0.75 19.6989 0.75 19.5C0.75 19.3011 0.829018 19.1103 0.969669 18.9697C1.11032 18.829 1.30109 18.75 1.5 18.75ZM12 21C12.2967 21 12.5867 20.912 12.8334 20.7472C13.08 20.5824 13.2723 20.3481 13.3858 20.074C13.4994 19.7999 13.5291 19.4983 13.4712 19.2074C13.4133 18.9164 13.2704 18.6491 13.0607 18.4393C12.8509 18.2296 12.5836 18.0867 12.2926 18.0288C12.0017 17.9709 11.7001 18.0007 11.426 18.1142C11.1519 18.2277 10.9176 18.42 10.7528 18.6666C10.588 18.9133 10.5 19.2033 10.5 19.5C10.5 19.8978 10.658 20.2794 10.9393 20.5607C11.2206 20.842 11.6022 21 12 21Z" fill="#7ED321"/>
</svg>
