<svg width="24" height="24" viewBox="0 0 24 24" fill="none" xmlns="http://www.w3.org/2000/svg">
    <path d="M1.5 5.25H1.6065C1.7702 5.89319 2.14354 6.4635 2.66754 6.87083C3.19153 7.27816 3.83631 7.4993 4.5 7.4993C5.16369 7.4993 5.80847 7.27816 6.33246 6.87083C6.85646 6.4635 7.2298 5.89319 7.3935 5.25H22.5C22.6989 5.25 22.8897 5.17098 23.0303 5.03033C23.171 4.88968 23.25 4.69891 23.25 4.5C23.25 4.30109 23.171 4.11032 23.0303 3.96967C22.8897 3.82902 22.6989 3.75 22.5 3.75H7.3935C7.2298 3.10681 6.85646 2.5365 6.33246 2.12917C5.80847 1.72184 5.16369 1.5007 4.5 1.5007C3.83631 1.5007 3.19153 1.72184 2.66754 2.12917C2.14354 2.5365 1.7702 3.10681 1.6065 3.75H1.5C1.30109 3.75 1.11032 3.82902 0.96967 3.96967C0.829018 4.11032 0.75 4.30109 0.75 4.5C0.75 4.69891 0.829018 4.88968 0.96967 5.03033C1.11032 5.17098 1.30109 5.25 1.5 5.25ZM4.5 3C4.79667 3 5.08668 3.08797 5.33335 3.2528C5.58003 3.41762 5.77229 3.65189 5.88582 3.92598C5.99935 4.20006 6.02906 4.50166 5.97118 4.79264C5.9133 5.08361 5.77044 5.35088 5.56066 5.56066C5.35088 5.77044 5.08361 5.9133 4.79264 5.97118C4.50166 6.02906 4.20006 5.99935 3.92597 5.88582C3.65189 5.77229 3.41762 5.58003 3.2528 5.33336C3.08797 5.08668 3 4.79667 3 4.5C3 4.10218 3.15804 3.72064 3.43934 3.43934C3.72064 3.15804 4.10218 3 4.5 3ZM22.5 11.25H22.3935C22.2298 10.6068 21.8565 10.0365 21.3325 9.62917C20.8085 9.22184 20.1637 9.0007 19.5 9.0007C18.8363 9.0007 18.1915 9.22184 17.6675 9.62917C17.1435 10.0365 16.7702 10.6068 16.6065 11.25H1.5C1.30109 11.25 1.11032 11.329 0.96967 11.4697C0.829018 11.6103 0.75 11.8011 0.75 12C0.75 12.1989 0.829018 12.3897 0.96967 12.5303C1.11032 12.671 1.30109 12.75 1.5 12.75H16.6065C16.7702 13.3932 17.1435 13.9635 17.6675 14.3708C18.1915 14.7782 18.8363 14.9993 19.5 14.9993C20.1637 14.9993 20.8085 14.7782 21.3325 14.3708C21.8565 13.9635 22.2298 13.3932 22.3935 12.75H22.5C22.6989 12.75 22.8897 12.671 23.0303 12.5303C23.171 12.3897 23.25 12.1989 23.25 12C23.25 11.8011 23.171 11.6103 23.0303 11.4697C22.8897 11.329 22.6989 11.25 22.5 11.25ZM19.5 13.5C19.2033 13.5 18.9133 13.412 18.6666 13.2472C18.42 13.0824 18.2277 12.8481 18.1142 12.574C18.0006 12.2999 17.9709 11.9983 18.0288 11.7074C18.0867 11.4164 18.2296 11.1491 18.4393 10.9393C18.6491 10.7296 18.9164 10.5867 19.2074 10.5288C19.4983 10.4709 19.7999 10.5006 20.074 10.6142C20.3481 10.7277 20.5824 10.92 20.7472 11.1666C20.912 11.4133 21 11.7033 21 12C21 12.3978 20.842 12.7794 20.5607 13.0607C20.2794 13.342 19.8978 13.5 19.5 13.5ZM22.5 18.75H14.8935C14.7298 18.1068 14.3565 17.5365 13.8325 17.1292C13.3085 16.7218 12.6637 16.5007 12 16.5007C11.3363 16.5007 10.6915 16.7218 10.1675 17.1292C9.64354 17.5365 9.2702 18.1068 9.1065 18.75H1.5C1.30109 18.75 1.11032 18.829 0.96967 18.9697C0.829018 19.1103 0.75 19.3011 0.75 19.5C0.75 19.6989 0.829018 19.8897 0.96967 20.0303C1.11032 20.171 1.30109 20.25 1.5 20.25H9.1065C9.2702 20.8932 9.64354 21.4635 10.1675 21.8708C10.6915 22.2782 11.3363 22.4993 12 22.4993C12.6637 22.4993 13.3085 22.2782 13.8325 21.8708C14.3565 21.4635 14.7298 20.8932 14.8935 20.25H22.5C22.6989 20.25 22.8897 20.171 23.0303 20.0303C23.171 19.8897 23.25 19.6989 23.25 19.5C23.25 19.3011 23.171 19.1103 23.0303 18.9697C22.8897 18.829 22.6989 18.75 22.5 18.75ZM12 21C11.7033 21 11.4133 20.912 11.1666 20.7472C10.92 20.5824 10.7277 20.3481 10.6142 20.074C10.5006 19.7999 10.4709 19.4983 10.5288 19.2074C10.5867 18.9164 10.7296 18.6491 10.9393 18.4393C11.1491 18.2296 11.4164 18.0867 11.7074 18.0288C11.9983 17.9709 12.2999 18.0007 12.574 18.1142C12.8481 18.2277 13.0824 18.42 13.2472 18.6666C13.412 18.9133 13.5 19.2033 13.5 19.5C13.5 19.8978 13.342 20.2794 13.0607 20.5607C12.7794 20.842 12.3978 21 12 21Z" fill="#7ED321"/>
</svg>
