<svg width="32" height="32" viewBox="0 0 32 32" fill="none" xmlns="http://www.w3.org/2000/svg">
    <g clip-path="url(#clip0_18_561)">
        <path d="M12.5714 30.8571V18.8571C12.5714 18.0994 12.8724 17.3727 13.4082 16.8368C13.9441 16.301 14.6708 16 15.4286 16V16C16.1863 16 16.913 16.301 17.4489 16.8368C17.9847 17.3727 18.2857 18.0994 18.2857 18.8571V25.1429H22.8571C24.0695 25.1429 25.2323 25.6245 26.0896 26.4818C26.9469 27.3391 27.4286 28.5019 27.4286 29.7143V30.8571" stroke="white" stroke-width="3" stroke-linecap="round" stroke-linejoin="round"/>
        <path d="M7.74856 19.68C6.23096 18.1613 5.19772 16.2267 4.77945 14.1209C4.36117 12.015 4.57665 9.83241 5.39864 7.849C6.22062 5.86558 7.61222 4.1704 9.39749 2.97776C11.1828 1.78512 13.2816 1.14856 15.4286 1.14856C17.5756 1.14856 19.6744 1.78512 21.4596 2.97776C23.2449 4.1704 24.6365 5.86558 25.4585 7.849C26.2805 9.83241 26.4959 12.015 26.0777 14.1209C25.6594 16.2267 24.6262 18.1613 23.1086 19.68" stroke="white" stroke-width="3" stroke-linecap="round" stroke-linejoin="round"/>
    </g>
    <defs>
        <clipPath id="clip0_18_561">
            <rect width="32" height="32" fill="white"/>
        </clipPath>
    </defs>
</svg>
