<svg width="24" height="24" viewBox="0 0 24 24" fill="none" xmlns="http://www.w3.org/2000/svg">
    <mask id="mask0_42_141" style="mask-type:luminance" maskUnits="userSpaceOnUse" x="0" y="0" width="24" height="24">
        <path d="M0 0H24V24H0V0Z" fill="white"/>
    </mask>
    <g mask="url(#mask0_42_141)">
        <path d="M23.2957 8.1057C23.2957 4.66359 20.5054 1.87328 17.0639 1.87328C14.9746 1.87328 13.131 2.90464 11.9999 4.48107C10.8694 2.90464 9.02515 1.87328 6.93652 1.87328C3.49442 1.87328 0.704102 4.66359 0.704102 8.1057C0.704102 8.59328 0.765996 9.0657 0.872102 9.52107C1.738 14.8971 7.71526 20.5699 11.9999 22.1274C16.2839 20.5699 22.2624 14.8971 23.1264 9.52107C23.2338 9.0657 23.2957 8.59328 23.2957 8.1057Z" fill="#D0021B"/>
    </g>
</svg>
