<svg width="26" height="29" viewBox="0 0 26 29" fill="none" xmlns="http://www.w3.org/2000/svg">
    <path d="M13 28.6561C12.8933 28.6561 12.7866 28.6387 12.6839 28.604C10.5653 27.8973 0 23.8187 0 12.84V4.98941C0 4.51341 0.336036 4.10127 0.804036 4.00927C7.3107 2.70794 9.6174 1.56407 12.5387 0.114737C12.8201 -0.0252629 13.1933 -0.0438176 13.4746 0.0961824C16.3559 1.54818 18.6319 2.69594 25.1973 4.00927C25.6653 4.1026 26.0013 4.51341 26.0013 4.98941V12.8413C26.0013 23.82 15.436 27.8986 13.3174 28.6053C13.2134 28.6386 13.1067 28.6561 13 28.6561ZM2 5.80549V12.84C2 21.9933 10.5573 25.7202 13 26.5962C15.4427 25.7202 24 21.992 24 12.84V5.80549C18.1053 4.57216 15.6265 3.4146 13.0199 2.1066C10.2505 3.47593 7.84667 4.58416 2 5.80549ZM12.3893 17.6961L17.7227 12.3628C18.1133 11.9721 18.1133 11.3387 17.7227 10.9481C17.332 10.5574 16.6986 10.5574 16.3079 10.9481L11.6813 15.5747L9.72135 13.6147C9.33069 13.2241 8.69731 13.2241 8.30664 13.6147C7.91597 14.0054 7.91597 14.6388 8.30664 15.0295L10.9733 17.6961C11.168 17.8908 11.424 17.9894 11.68 17.9894C11.936 17.9894 12.1947 17.8921 12.3893 17.6961Z" fill="white"/>
</svg>
