<svg width="16" height="15" viewBox="0 0 16 15" fill="none" xmlns="http://www.w3.org/2000/svg">
    <path d="M0.226512 7.27083C0.0755041 7.10417 0 6.90625 0 6.67708C0 6.44792 0.0755041 6.25 0.226512 6.08333L2.53282 3.75L1.64736 2.85417L1.40026 3.10417C1.23552 3.27083 1.0399 3.35417 0.813385 3.35417C0.586873 3.35417 0.391248 3.27083 0.226512 3.10417C0.0755041 2.95139 0 2.75694 0 2.52083C0 2.28472 0.0755041 2.09028 0.226512 1.9375L1.87387 0.270833C2.03861 0.104167 2.23423 0.0208333 2.46075 0.0208333C2.68726 0.0208333 2.88288 0.104167 3.04762 0.270833C3.19863 0.423611 3.27413 0.618056 3.27413 0.854167C3.27413 1.09028 3.19863 1.28472 3.04762 1.4375L2.80051 1.6875L3.68597 2.58333L5.99228 0.25C6.15701 0.0833333 6.35264 0 6.57915 0C6.80566 0 7.00129 0.0833333 7.16602 0.25C7.33076 0.416667 7.41313 0.614583 7.41313 0.84375C7.41313 1.07292 7.33076 1.27083 7.16602 1.4375L6.61004 1.97917L12.6847 8.125C13.0004 8.44444 13.1583 8.83681 13.1583 9.30208C13.1583 9.76736 13.0004 10.1597 12.6847 10.4792L12.1081 11.0833L16 15H13.6525L10.9344 12.25L10.3578 12.8542C10.042 13.1736 9.65423 13.3333 9.19434 13.3333C8.73445 13.3333 8.34663 13.1736 8.03089 12.8542L1.95624 6.70833L1.40026 7.27083C1.23552 7.42361 1.0399 7.5 0.813385 7.5C0.586873 7.5 0.391248 7.42361 0.226512 7.27083ZM3.1094 5.54167L9.18404 11.6875L11.5109 9.3125L10.2754 8.04167L9.12226 9.20833C8.95753 9.36111 8.7619 9.44097 8.53539 9.44792C8.30888 9.45486 8.12012 9.38194 7.96911 9.22917C7.80438 9.0625 7.72201 8.86458 7.72201 8.63542C7.72201 8.40625 7.80438 8.20833 7.96911 8.04167L9.12226 6.875L7.88674 5.625L6.73359 6.79167C6.56885 6.94444 6.37323 7.02083 6.14672 7.02083C5.92021 7.02083 5.72458 6.94444 5.55985 6.79167C5.40884 6.625 5.33333 6.42708 5.33333 6.19792C5.33333 5.96875 5.40884 5.77083 5.55985 5.60417L6.713 4.4375L5.45689 3.16667L3.1094 5.54167Z" fill="#4A90E2"/>
</svg>
