<svg width="20" height="20" viewBox="0 0 20 20" fill="none" xmlns="http://www.w3.org/2000/svg">
    <g clip-path="url(#clip0_736_902)">
        <path d="M13.5715 15.0001V17.8572C13.5715 18.2361 13.421 18.5995 13.1531 18.8674C12.8852 19.1353 12.5218 19.2858 12.1429 19.2858H2.14293C1.76405 19.2858 1.40068 19.1353 1.13277 18.8674C0.864865 18.5995 0.714355 18.2361 0.714355 17.8572V2.14293C0.714355 1.76405 0.864865 1.40068 1.13277 1.13277C1.40068 0.864865 1.76405 0.714355 2.14293 0.714355H12.1429C12.5218 0.714355 12.8852 0.864865 13.1531 1.13277C13.421 1.40068 13.5715 1.76405 13.5715 2.14293V5.00007" fill="white"/>
        <path d="M13.5715 15.0001V17.8572C13.5715 18.2361 13.421 18.5995 13.1531 18.8674C12.8852 19.1353 12.5218 19.2858 12.1429 19.2858H2.14293C1.76405 19.2858 1.40068 19.1353 1.13277 18.8674C0.864865 18.5995 0.714355 18.2361 0.714355 17.8572V2.14293C0.714355 1.76405 0.864865 1.40068 1.13277 1.13277C1.40068 0.864865 1.76405 0.714355 2.14293 0.714355H12.1429C12.5218 0.714355 12.8852 0.864865 13.1531 1.13277C13.421 1.40068 13.5715 1.76405 13.5715 2.14293V5.00007" stroke="#4A90E2" stroke-width="2" stroke-linecap="round" stroke-linejoin="round"/>
        <path d="M9.28589 10H19.2859" stroke="#4A90E2" stroke-linecap="round" stroke-linejoin="round"/>
        <path d="M16.4287 7.14282L19.2859 9.99997L16.4287 12.8571" stroke="#4A90E2" stroke-linecap="round" stroke-linejoin="round"/>
    </g>
    <defs>
        <clipPath id="clip0_736_902">
            <rect width="20" height="20" fill="white"/>
        </clipPath>
    </defs>
</svg>
