<svg width="24" height="24" viewBox="0 0 24 24" fill="none" xmlns="http://www.w3.org/2000/svg">
    <g clip-path="url(#clip0_426_1024)">
        <path d="M22.3705 10.8314L12.7518 1.58087L12.7539 1.58523C11.6699 0.528336 10.2412 -0.00233602 8.81925 7.72944e-06C7.39942 -0.00233602 5.97063 0.528336 4.88649 1.58523C3.80028 2.63945 3.25491 4.02704 3.25694 5.41065C3.25491 6.79356 3.80024 8.18316 4.88649 9.23776L7.15654 11.4221C7.08811 11.4201 7.01959 11.4201 6.9513 11.4201C5.08961 11.4201 3.39842 11.8755 2.13305 12.6464C1.50146 13.0329 0.973732 13.499 0.598378 14.0424C0.220952 14.5839 0 15.2066 0 15.8639V19.5539C0 20.2109 0.220952 20.8339 0.598378 21.3753C1.16375 22.1893 2.06225 22.8355 3.15762 23.2892C4.25505 23.7422 5.55566 23.9977 6.9513 24C8.81043 23.9977 10.5018 23.5426 11.767 22.7714C12.4006 22.3869 12.9261 21.9188 13.3037 21.3754C13.6793 20.834 13.9 20.2109 13.9 19.5539V17.9065L14.505 18.489L14.503 18.4843C15.5869 19.5408 17.0157 20.0718 18.4376 20.0695C19.8576 20.0718 21.2862 19.5408 22.3705 18.4866C23.4567 17.4297 24 16.0424 24 14.6589C24 13.2756 23.4568 11.8879 22.3705 10.8314ZM6.48096 6.96966C5.56024 6.07206 5.56024 4.59638 6.49407 3.68799C6.94446 3.24976 7.54505 3.00713 8.18564 3.00713L6.48096 6.96966ZM1.10404 15.8639C1.10611 15.4408 1.24085 15.0372 1.51279 14.6416C1.75133 14.2962 2.1022 13.9651 2.54151 13.6711L10.9898 18.4802C10.7977 18.583 10.5946 18.6798 10.3802 18.7679C9.41098 19.1694 8.22747 19.4057 6.9514 19.4057C5.24642 19.4081 3.70964 18.9826 2.62565 18.3189C2.08254 17.9862 1.65413 17.597 1.36701 17.1806C1.26075 17.0257 1.17266 16.8691 1.10409 16.7081L1.10404 15.8639ZM12.7961 19.5539C12.7961 19.977 12.6591 20.381 12.3877 20.7759C11.9811 21.3646 11.2592 21.91 10.3119 22.3013C9.36684 22.6921 8.20531 22.9263 6.95135 22.9263C5.27746 22.9263 3.76939 22.5073 2.72063 21.863C2.19497 21.5428 1.78415 21.167 1.51279 20.7759C1.2409 20.381 1.10611 19.977 1.10404 19.5539V18.0312C1.63832 18.6066 2.36715 19.0858 3.22605 19.44C4.29915 19.8829 5.57764 20.1363 6.95135 20.1363C8.78176 20.1363 10.4422 19.6869 11.6742 18.9352C12.107 18.6734 12.4846 18.3706 12.7961 18.0332V19.5539ZM12.7961 16.7081C12.7829 16.7404 12.7695 16.7703 12.7518 16.8025C12.6924 16.9316 12.6193 17.0559 12.5331 17.1806C12.3477 17.4511 12.0982 17.7069 11.8024 17.9452L3.43804 13.1855C3.48883 13.164 3.53755 13.1381 3.5882 13.1189C4.53326 12.7281 5.69483 12.4938 6.9514 12.4938C7.44583 12.4938 7.92522 12.5304 8.38212 12.5994C9.473 12.7603 10.44 13.1038 11.1798 13.5548C11.2703 13.6085 11.3565 13.6667 11.438 13.7248C11.8377 14.0018 12.1535 14.3089 12.3765 14.6292C12.381 14.6332 12.3853 14.6376 12.3877 14.6416C12.6591 15.0371 12.7961 15.4408 12.7961 15.8639L12.7961 16.7081ZM21.4343 17.5734C20.604 18.3793 19.524 18.7806 18.4376 18.7806C17.3491 18.7806 16.2695 18.381 15.4391 17.5734L15.4369 17.5714L13.9001 16.0937V15.8639C13.9001 15.2065 13.6793 14.5838 13.3038 14.0424C12.8315 13.3659 12.1315 12.8054 11.279 12.3759C11.3851 12.1074 11.5197 11.815 11.6854 11.5149C12.1535 10.6596 12.8557 9.73173 13.7854 9.01895C14.7105 8.30785 15.8478 7.80104 17.2543 7.72341L21.432 11.7421H21.4343C22.2623 12.5496 22.6751 13.6022 22.6751 14.6588C22.6751 15.7157 22.2623 16.7683 21.4343 17.5734Z" fill="black"/>
    </g>
    <defs>
        <clipPath id="clip0_426_1024">
            <rect width="24" height="24" fill="white"/>
        </clipPath>
    </defs>
</svg>
