<svg width="7" height="20" viewBox="0 0 7 20" fill="none" xmlns="http://www.w3.org/2000/svg">
    <path d="M3.14286 5.00007C4.32632 5.00007 5.28571 4.04068 5.28571 2.85721C5.28571 1.67375 4.32632 0.714355 3.14286 0.714355C1.95939 0.714355 1 1.67375 1 2.85721C1 4.04068 1.95939 5.00007 3.14286 5.00007Z" stroke="#4A90E2" stroke-width="2" stroke-linecap="round" stroke-linejoin="round"/>
    <path d="M3.14286 12.1429C4.32632 12.1429 5.28571 11.1835 5.28571 10C5.28571 8.81657 4.32632 7.85718 3.14286 7.85718C1.95939 7.85718 1 8.81657 1 10C1 11.1835 1.95939 12.1429 3.14286 12.1429Z" stroke="#4A90E2" stroke-width="2" stroke-linecap="round" stroke-linejoin="round"/>
    <path d="M3.14286 19.2857C4.32632 19.2857 5.28571 18.3263 5.28571 17.1429C5.28571 15.9594 4.32632 15 3.14286 15C1.95939 15 1 15.9594 1 17.1429C1 18.3263 1.95939 19.2857 3.14286 19.2857Z" stroke="#4A90E2" stroke-width="2" stroke-linecap="round" stroke-linejoin="round"/>
</svg>
