<svg width="21" height="7" viewBox="0 0 21 7" fill="none" xmlns="http://www.w3.org/2000/svg">
    <path d="M17.4285 5.28571C18.612 5.28571 19.5714 4.32632 19.5714 3.14286C19.5714 1.95939 18.612 1 17.4285 1C16.245 1 15.2856 1.95939 15.2856 3.14286C15.2856 4.32632 16.245 5.28571 17.4285 5.28571Z" stroke="#4A90E2" stroke-width="2" stroke-linecap="round" stroke-linejoin="round"/>
    <path d="M10.2857 5.28571C11.4691 5.28571 12.4285 4.32632 12.4285 3.14286C12.4285 1.95939 11.4691 1 10.2857 1C9.10221 1 8.14282 1.95939 8.14282 3.14286C8.14282 4.32632 9.10221 5.28571 10.2857 5.28571Z" stroke="#4A90E2" stroke-width="2" stroke-linecap="round" stroke-linejoin="round"/>
    <path d="M3.14286 5.28571C4.32632 5.28571 5.28571 4.32632 5.28571 3.14286C5.28571 1.95939 4.32632 1 3.14286 1C1.95939 1 1 1.95939 1 3.14286C1 4.32632 1.95939 5.28571 3.14286 5.28571Z" stroke="#4A90E2" stroke-width="2" stroke-linecap="round" stroke-linejoin="round"/>
</svg>
