<svg width="20" height="20" viewBox="0 0 20 20" fill="none" xmlns="http://www.w3.org/2000/svg">
    <path d="M7.143 8.57139C8.9182 8.57139 10.3573 7.13231 10.3573 5.35711C10.3573 3.58191 8.9182 2.14282 7.143 2.14282C5.3678 2.14282 3.92871 3.58191 3.92871 5.35711C3.92871 7.13231 5.3678 8.57139 7.143 8.57139Z" fill="white" stroke="#4A90E2" stroke-width="2" stroke-linecap="round" stroke-linejoin="round"/>
    <path d="M13.5715 19.2856H0.714355V17.857C0.714355 16.1521 1.39165 14.5169 2.59724 13.3114C3.80283 12.1058 5.43796 11.4285 7.14293 11.4285C8.84789 11.4285 10.483 12.1058 11.6886 13.3114C12.8942 14.5169 13.5715 16.1521 13.5715 17.857V19.2856Z" stroke="#4A90E2" stroke-linecap="round" stroke-linejoin="round"/>
    <path d="M12.8572 2.14282C13.7097 2.14282 14.5272 2.48147 15.13 3.08426C15.7328 3.68706 16.0715 4.50463 16.0715 5.35711C16.0715 6.20959 15.7328 7.02716 15.13 7.62995C14.5272 8.23275 13.7097 8.57139 12.8572 8.57139" stroke="#4A90E2" stroke-linecap="round" stroke-linejoin="round"/>
    <path d="M15.1428 11.7C16.3597 12.1629 17.4074 12.9844 18.1472 14.0558C18.8869 15.1272 19.284 16.398 19.2857 17.7V19.2857H17.1428" stroke="#4A90E2" stroke-linecap="round" stroke-linejoin="round"/>
</svg>
