<svg width="20" height="20" viewBox="0 0 20 20" fill="none" xmlns="http://www.w3.org/2000/svg">
    <g clip-path="url(#clip0_736_1022)">
        <path d="M10.5144 19.1858C10.1834 19.3135 9.81675 19.3135 9.48578 19.1858V19.1858C6.90106 18.1723 4.68168 16.4035 3.11705 14.1101C1.55241 11.8166 0.715121 9.10496 0.714355 6.32864V2.14293C0.714355 1.76405 0.864865 1.40068 1.13277 1.13277C1.40068 0.864865 1.76405 0.714355 2.14293 0.714355H17.8572C18.2361 0.714355 18.5995 0.864865 18.8674 1.13277C19.1353 1.40068 19.2858 1.76405 19.2858 2.14293V6.31436C19.2879 9.09311 18.4519 11.8079 16.8871 14.1042C15.3223 16.4004 13.1013 18.1714 10.5144 19.1858V19.1858Z" fill="white" stroke="#4A90E2" stroke-width="2" stroke-linecap="round" stroke-linejoin="round"/>
        <path d="M12.143 7.85718H7.85728C7.0683 7.85718 6.42871 8.49677 6.42871 9.28575V12.1429C6.42871 12.9319 7.0683 13.5715 7.85728 13.5715H12.143C12.932 13.5715 13.5716 12.9319 13.5716 12.1429V9.28575C13.5716 8.49677 12.932 7.85718 12.143 7.85718Z" stroke="#4A90E2" stroke-linecap="round" stroke-linejoin="round"/>
        <path d="M12.1429 7.85732V6.42875C12.1429 6.14734 12.0875 5.86869 11.9798 5.60871C11.8721 5.34873 11.7142 5.1125 11.5153 4.91352C11.3163 4.71453 11.0801 4.55669 10.8201 4.449C10.5601 4.34132 10.2814 4.28589 10 4.28589C9.71863 4.28589 9.43998 4.34132 9.18 4.449C8.92002 4.55669 8.68379 4.71453 8.48481 4.91352C8.28582 5.1125 8.12798 5.34873 8.02029 5.60871C7.9126 5.86869 7.85718 6.14734 7.85718 6.42875V7.85732" stroke="#4A90E2" stroke-linecap="round" stroke-linejoin="round"/>
    </g>
    <defs>
        <clipPath id="clip0_736_1022">
            <rect width="20" height="20" fill="white"/>
        </clipPath>
    </defs>
</svg>
