<svg width="26" height="26" viewBox="0 0 26 26" fill="none" xmlns="http://www.w3.org/2000/svg">
    <path d="M23.0843 2.343C26.2083 5.467 26.2083 10.5323 23.0843 13.6563L13.6577 23.0843C10.5323 26.2083 5.467 26.2083 2.343 23.0843C-0.781 19.9603 -0.781 14.895 2.343 11.771L11.7697 2.343C14.895 -0.781 19.9603 -0.781 23.0843 2.343V2.343ZM15.543 17.427L8.00033 9.88433L4.22833 13.6577C2.14567 15.739 2.14567 19.1163 4.22833 21.199C6.311 23.2817 9.68833 23.2817 11.771 21.199L15.543 17.4257V17.427ZM21.199 4.22833C19.1163 2.14567 15.739 2.14567 13.6563 4.22833L9.887 7.999L17.4297 15.5417L21.2003 11.771C23.283 9.68833 23.283 6.311 21.2003 4.22833H21.199Z" fill="#4A90E2"/>
</svg>
