<svg width="20" height="20" viewBox="0 0 20 20" fill="none" xmlns="http://www.w3.org/2000/svg">
    <g clip-path="url(#clip0_318_1270)">
        <path d="M19.2858 9.28572C19.2858 8.90684 19.1353 8.54348 18.8674 8.27557C18.5995 8.00766 18.2361 7.85715 17.8572 7.85715H12.1429V2.14287C12.1429 1.76399 11.9924 1.40062 11.7245 1.13271C11.4566 0.864804 11.0932 0.714294 10.7144 0.714294H9.28578C8.9069 0.714294 8.54354 0.864804 8.27563 1.13271C8.00772 1.40062 7.85721 1.76399 7.85721 2.14287V7.85715H2.14293C1.76405 7.85715 1.40068 8.00766 1.13277 8.27557C0.864865 8.54348 0.714355 8.90684 0.714355 9.28572V10.7143C0.714355 11.0932 0.864865 11.4565 1.13277 11.7244C1.40068 11.9924 1.76405 12.1429 2.14293 12.1429H7.85721V17.8572C7.85721 18.236 8.00772 18.5994 8.27563 18.8673C8.54354 19.1352 8.9069 19.2857 9.28578 19.2857H10.7144C11.0932 19.2857 11.4566 19.1352 11.7245 18.8673C11.9924 18.5994 12.1429 18.236 12.1429 17.8572V12.1429H17.8572C18.2361 12.1429 18.5995 11.9924 18.8674 11.7244C19.1353 11.4565 19.2858 11.0932 19.2858 10.7143V9.28572Z" stroke="white" stroke-width="2" stroke-linecap="round" stroke-linejoin="round"/>
    </g>
    <defs>
        <clipPath id="clip0_318_1270">
            <rect width="20" height="20" fill="white"/>
        </clipPath>
    </defs>
</svg>
