<svg width="20" height="20" viewBox="0 0 20 20" fill="none" xmlns="http://www.w3.org/2000/svg">
    <path d="M4.33325 10.6003H7.0979C6.63852 10.897 6.33336 11.4122 6.33325 11.9998C6.33325 12.9203 7.07989 13.6667 8.00024 13.6667H8.92798L7.77271 16.7478V16.7488C7.56557 17.3016 7.67241 17.894 8.0022 18.3337H4.66626C4.48229 18.3336 4.33325 18.1838 4.33325 17.9998V10.6003ZM15.6663 17.9998C15.6663 18.1839 15.5174 18.3337 15.3333 18.3337H15.3313C15.6611 17.894 15.7679 17.3016 15.5608 16.7488V16.7478L14.4055 13.6667H14.8674C15.157 13.6667 15.429 13.5925 15.6663 13.4626V17.9998ZM11.844 16.3308L12.4397 17.9187C12.4969 18.0713 12.5751 18.2097 12.6682 18.3337H10.6653C10.7256 18.2534 10.7806 18.1676 10.8264 18.075L10.8938 17.9187L11.4895 16.3308H11.844ZM15.6663 7.8269V10.5369C15.4291 10.4071 15.1568 10.3337 14.8674 10.3337H13.7727C13.917 10.0304 14.0002 9.692 14.0002 9.33374C14.0002 8.75905 13.791 8.23353 13.4465 7.8269H15.6663ZM9.88696 7.8269C9.80522 7.92337 9.73166 8.02652 9.66626 8.1355V7.8269H9.88696ZM4.66626 2.99976H7.00024V4.33374H13.0002V2.99976H15.3333C15.5174 2.99976 15.6663 3.14963 15.6663 3.33374V4.4939H4.33325V3.33374C4.33325 3.14973 4.48229 2.99993 4.66626 2.99976Z" fill="#4A90E2" stroke="#4A90E2" stroke-width="2"/>
</svg>
