<svg width="24" height="27" viewBox="0 0 24 27" fill="none" xmlns="http://www.w3.org/2000/svg">
    <path d="M18.6667 0V2.66667H22.6667C23.4027 2.66667 24 3.264 24 4V25.3333C24 26.0693 23.4027 26.6667 22.6667 26.6667H1.33333C0.597333 26.6667 0 26.0693 0 25.3333V4C0 3.264 0.597333 2.66667 1.33333 2.66667H5.33333V0H18.6667ZM5.33333 5.33333H2.66667V24H21.3333V5.33333H18.6667V8H5.33333V5.33333ZM13.3333 12V14.6667H16V17.3333H13.332L13.3333 20H10.6667L10.6653 17.3333H8V14.6667H10.6667V12H13.3333ZM16 2.66667H8V5.33333H16V2.66667Z" fill="#4A90E2"/>
</svg>
