<svg width="24" height="24" viewBox="0 0 24 24" fill="none" xmlns="http://www.w3.org/2000/svg">
    <mask id="path-1-inside-1_502_49" fill="white">
        <path d="M22.1176 8H21.1765V7.05882C21.1765 5.76141 20.1209 4.70588 18.8235 4.70588H5.17647C4.6472 4.70588 4.15826 4.88165 3.76471 5.17774V3.22527C4.44424 3.02226 4.94118 2.39172 4.94118 1.64706C4.94118 0.738871 4.20231 0 3.29412 0C2.38593 0 1.64706 0.738871 1.64706 1.64706C1.64706 2.39172 2.144 3.02226 2.82353 3.22527V7.05882V8H1.88235C0.844424 8 0 8.84442 0 9.88235V11.2941C0 12.332 0.844424 13.1765 1.88235 13.1765H2.82353V14.5882C2.82353 15.8856 3.87906 16.9412 5.17647 16.9412H8V18.3529H5.64706C4.86861 18.3529 4.23529 18.9863 4.23529 19.7647V20.2752C2.90169 20.5 1.88235 21.6623 1.88235 23.0588V23.5294C1.88235 23.7893 2.09308 24 2.35294 24C3.13261 24 20.9388 24 21.6471 24C21.9069 24 22.1176 23.7893 22.1176 23.5294V23.0588C22.1176 21.6623 21.0983 20.5 19.7647 20.2752V19.7647C19.7647 18.9863 19.1314 18.3529 18.3529 18.3529H16V16.9412H18.8235C20.1209 16.9412 21.1765 15.8856 21.1765 14.5882V13.1765H22.1176C23.1556 13.1765 24 12.332 24 11.2941V9.88235C24 8.84442 23.1556 8 22.1176 8ZM2.82353 12.2353H1.88235C1.36339 12.2353 0.941176 11.8131 0.941176 11.2941V9.88235C0.941176 9.36339 1.36339 8.94118 1.88235 8.94118H2.82353V12.2353ZM4.23529 23.0588H2.82353C2.82353 22.1833 3.42433 21.4455 4.23529 21.236V23.0588ZM19.7647 21.236C20.5757 21.4455 21.1765 22.1833 21.1765 23.0588H19.7647V21.236ZM3.29412 2.35294C2.90489 2.35294 2.58824 2.03628 2.58824 1.64706C2.58824 1.25784 2.90489 0.941176 3.29412 0.941176C3.68334 0.941176 4 1.25784 4 1.64706C4 2.03628 3.68334 2.35294 3.29412 2.35294ZM16 23.0588H8V21.6471H16V23.0588ZM18.3529 19.2941C18.6124 19.2941 18.8235 19.5052 18.8235 19.7647C18.8235 20.6547 18.8235 22.4727 18.8235 23.0588H16.9412V21.1765C16.9412 20.9166 16.7304 20.7059 16.4706 20.7059H7.52941C7.26955 20.7059 7.05882 20.9166 7.05882 21.1765V23.0588H5.17647C5.17647 22.4807 5.17647 20.6339 5.17647 19.7647C5.17647 19.5052 5.38758 19.2941 5.64706 19.2941C6.98094 19.2941 17.0385 19.2941 18.3529 19.2941ZM8.94118 18.3529V16.9412H15.0588V18.3529H8.94118ZM20.2353 14.5882C20.2353 15.3667 19.602 16 18.8235 16C18.053 16 5.94668 16 5.17647 16C4.39802 16 3.76471 15.3667 3.76471 14.5882C3.76471 13.9249 3.76471 8.15977 3.76471 7.05882C3.76471 6.28038 4.39802 5.64706 5.17647 5.64706H18.8235C19.602 5.64706 20.2353 6.28038 20.2353 7.05882C20.2353 10.0803 20.2353 13.7143 20.2353 14.5882ZM23.0588 11.2941C23.0588 11.8131 22.6366 12.2353 22.1176 12.2353H21.1765V8.94118H22.1176C22.6366 8.94118 23.0588 9.36339 23.0588 9.88235V11.2941ZM17.4118 7.05882H6.58824C5.80979 7.05882 5.17647 7.69214 5.17647 8.47059V13.1765C5.17647 13.9549 5.80979 14.5882 6.58824 14.5882H17.4118C18.1902 14.5882 18.8235 13.9549 18.8235 13.1765V8.47059C18.8235 7.69214 18.1902 7.05882 17.4118 7.05882ZM17.8824 13.1765C17.8824 13.436 17.6712 13.6471 17.4118 13.6471H6.58824C6.32875 13.6471 6.11765 13.436 6.11765 13.1765V8.47059C6.11765 8.21111 6.32875 8 6.58824 8H17.4118C17.6712 8 17.8824 8.21111 17.8824 8.47059V13.1765ZM8.47059 9.41177C7.69214 9.41177 7.05882 10.0451 7.05882 10.8235C7.05882 11.602 7.69214 12.2353 8.47059 12.2353C9.24904 12.2353 9.88235 11.602 9.88235 10.8235C9.88235 10.0451 9.24904 9.41177 8.47059 9.41177ZM8.47059 11.2941C8.21111 11.2941 8 11.083 8 10.8235C8 10.564 8.21111 10.3529 8.47059 10.3529C8.73007 10.3529 8.94118 10.564 8.94118 10.8235C8.94118 11.083 8.73007 11.2941 8.47059 11.2941ZM15.5294 9.41177C14.751 9.41177 14.1176 10.0451 14.1176 10.8235C14.1176 11.602 14.751 12.2353 15.5294 12.2353C16.3079 12.2353 16.9412 11.602 16.9412 10.8235C16.9412 10.0451 16.3079 9.41177 15.5294 9.41177ZM15.5294 11.2941C15.2699 11.2941 15.0588 11.083 15.0588 10.8235C15.0588 10.564 15.2699 10.3529 15.5294 10.3529C15.7889 10.3529 16 10.564 16 10.8235C16 11.083 15.7889 11.2941 15.5294 11.2941Z"/>
    </mask>
    <path d="M22.1176 8H21.1765V7.05882C21.1765 5.76141 20.1209 4.70588 18.8235 4.70588H5.17647C4.6472 4.70588 4.15826 4.88165 3.76471 5.17774V3.22527C4.44424 3.02226 4.94118 2.39172 4.94118 1.64706C4.94118 0.738871 4.20231 0 3.29412 0C2.38593 0 1.64706 0.738871 1.64706 1.64706C1.64706 2.39172 2.144 3.02226 2.82353 3.22527V7.05882V8H1.88235C0.844424 8 0 8.84442 0 9.88235V11.2941C0 12.332 0.844424 13.1765 1.88235 13.1765H2.82353V14.5882C2.82353 15.8856 3.87906 16.9412 5.17647 16.9412H8V18.3529H5.64706C4.86861 18.3529 4.23529 18.9863 4.23529 19.7647V20.2752C2.90169 20.5 1.88235 21.6623 1.88235 23.0588V23.5294C1.88235 23.7893 2.09308 24 2.35294 24C3.13261 24 20.9388 24 21.6471 24C21.9069 24 22.1176 23.7893 22.1176 23.5294V23.0588C22.1176 21.6623 21.0983 20.5 19.7647 20.2752V19.7647C19.7647 18.9863 19.1314 18.3529 18.3529 18.3529H16V16.9412H18.8235C20.1209 16.9412 21.1765 15.8856 21.1765 14.5882V13.1765H22.1176C23.1556 13.1765 24 12.332 24 11.2941V9.88235C24 8.84442 23.1556 8 22.1176 8ZM2.82353 12.2353H1.88235C1.36339 12.2353 0.941176 11.8131 0.941176 11.2941V9.88235C0.941176 9.36339 1.36339 8.94118 1.88235 8.94118H2.82353V12.2353ZM4.23529 23.0588H2.82353C2.82353 22.1833 3.42433 21.4455 4.23529 21.236V23.0588ZM19.7647 21.236C20.5757 21.4455 21.1765 22.1833 21.1765 23.0588H19.7647V21.236ZM3.29412 2.35294C2.90489 2.35294 2.58824 2.03628 2.58824 1.64706C2.58824 1.25784 2.90489 0.941176 3.29412 0.941176C3.68334 0.941176 4 1.25784 4 1.64706C4 2.03628 3.68334 2.35294 3.29412 2.35294ZM16 23.0588H8V21.6471H16V23.0588ZM18.3529 19.2941C18.6124 19.2941 18.8235 19.5052 18.8235 19.7647C18.8235 20.6547 18.8235 22.4727 18.8235 23.0588H16.9412V21.1765C16.9412 20.9166 16.7304 20.7059 16.4706 20.7059H7.52941C7.26955 20.7059 7.05882 20.9166 7.05882 21.1765V23.0588H5.17647C5.17647 22.4807 5.17647 20.6339 5.17647 19.7647C5.17647 19.5052 5.38758 19.2941 5.64706 19.2941C6.98094 19.2941 17.0385 19.2941 18.3529 19.2941ZM8.94118 18.3529V16.9412H15.0588V18.3529H8.94118ZM20.2353 14.5882C20.2353 15.3667 19.602 16 18.8235 16C18.053 16 5.94668 16 5.17647 16C4.39802 16 3.76471 15.3667 3.76471 14.5882C3.76471 13.9249 3.76471 8.15977 3.76471 7.05882C3.76471 6.28038 4.39802 5.64706 5.17647 5.64706H18.8235C19.602 5.64706 20.2353 6.28038 20.2353 7.05882C20.2353 10.0803 20.2353 13.7143 20.2353 14.5882ZM23.0588 11.2941C23.0588 11.8131 22.6366 12.2353 22.1176 12.2353H21.1765V8.94118H22.1176C22.6366 8.94118 23.0588 9.36339 23.0588 9.88235V11.2941ZM17.4118 7.05882H6.58824C5.80979 7.05882 5.17647 7.69214 5.17647 8.47059V13.1765C5.17647 13.9549 5.80979 14.5882 6.58824 14.5882H17.4118C18.1902 14.5882 18.8235 13.9549 18.8235 13.1765V8.47059C18.8235 7.69214 18.1902 7.05882 17.4118 7.05882ZM17.8824 13.1765C17.8824 13.436 17.6712 13.6471 17.4118 13.6471H6.58824C6.32875 13.6471 6.11765 13.436 6.11765 13.1765V8.47059C6.11765 8.21111 6.32875 8 6.58824 8H17.4118C17.6712 8 17.8824 8.21111 17.8824 8.47059V13.1765ZM8.47059 9.41177C7.69214 9.41177 7.05882 10.0451 7.05882 10.8235C7.05882 11.602 7.69214 12.2353 8.47059 12.2353C9.24904 12.2353 9.88235 11.602 9.88235 10.8235C9.88235 10.0451 9.24904 9.41177 8.47059 9.41177ZM8.47059 11.2941C8.21111 11.2941 8 11.083 8 10.8235C8 10.564 8.21111 10.3529 8.47059 10.3529C8.73007 10.3529 8.94118 10.564 8.94118 10.8235C8.94118 11.083 8.73007 11.2941 8.47059 11.2941ZM15.5294 9.41177C14.751 9.41177 14.1176 10.0451 14.1176 10.8235C14.1176 11.602 14.751 12.2353 15.5294 12.2353C16.3079 12.2353 16.9412 11.602 16.9412 10.8235C16.9412 10.0451 16.3079 9.41177 15.5294 9.41177ZM15.5294 11.2941C15.2699 11.2941 15.0588 11.083 15.0588 10.8235C15.0588 10.564 15.2699 10.3529 15.5294 10.3529C15.7889 10.3529 16 10.564 16 10.8235C16 11.083 15.7889 11.2941 15.5294 11.2941Z" fill="#8E8E8E" stroke="#8E8E8E" stroke-width="4" mask="url(#path-1-inside-1_502_49)"/>
</svg>
