<svg width="22" height="24" viewBox="0 0 22 24" fill="none" xmlns="http://www.w3.org/2000/svg">
    <path d="M0.5 5.64282H21.0714" stroke="#7D0110" stroke-linecap="round" stroke-linejoin="round"/>
    <path d="M3.07143 5.64282H18.5V21.0714C18.5 21.526 18.3194 21.9621 17.9979 22.2836C17.6764 22.6051 17.2404 22.7857 16.7857 22.7857H4.78571C4.33106 22.7857 3.89502 22.6051 3.57353 22.2836C3.25204 21.9621 3.07143 21.526 3.07143 21.0714V5.64282Z" stroke="#7D0110" stroke-linecap="round" stroke-linejoin="round"/>
    <path d="M6.5 5.64286V4.78571C6.5 3.64907 6.95153 2.55898 7.75526 1.75526C8.55898 0.951529 9.64907 0.5 10.7857 0.5C11.9224 0.5 13.0124 0.951529 13.8162 1.75526C14.6199 2.55898 15.0714 3.64907 15.0714 4.78571V5.64286" stroke="#7D0110" stroke-linecap="round" stroke-linejoin="round"/>
    <path d="M8.21429 9.07153V18.5001" stroke="#7D0110" stroke-linecap="round" stroke-linejoin="round"/>
    <path d="M13.3571 9.07153V18.5001" stroke="#7D0110" stroke-linecap="round" stroke-linejoin="round"/>
</svg>
