<svg width="18" height="18" viewBox="0 0 18 18" fill="none" xmlns="http://www.w3.org/2000/svg">
    <path d="M2.87993 5.50867L11.4399 1.22867C17.1899 -1.65133 19.5499 0.70867 16.6699 6.45867L15.7999 8.19867C15.5499 8.70867 15.5499 9.29867 15.7999 9.80867L16.6699 11.5387C19.5499 17.2887 17.1999 19.6487 11.4399 16.7687L2.87993 12.4887C-0.960068 10.5687 -0.960068 7.42867 2.87993 5.50867ZM6.10993 9.74867H11.5099C11.9199 9.74867 12.2599 9.40867 12.2599 8.99867C12.2599 8.58867 11.9199 8.24867 11.5099 8.24867H6.10993C5.69993 8.24867 5.35993 8.58867 5.35993 8.99867C5.35993 9.40867 5.69993 9.74867 6.10993 9.74867Z" fill="#4A90E2"/>
</svg>
