<svg width="23" height="23" viewBox="0 0 23 23" fill="none" xmlns="http://www.w3.org/2000/svg">
    <path d="M17.125 15.3438L20.4375 12C21.1042 11.3333 21.6146 10.5729 21.9688 9.71875C22.3229 8.86458 22.5 7.96875 22.5 7.03125C22.5 5.07292 21.8177 3.41146 20.4531 2.04688C19.0885 0.682292 17.4271 0 15.4688 0C14.5312 0 13.6354 0.177083 12.7812 0.53125C11.9271 0.885417 11.1667 1.39583 10.5 2.0625L7.15625 5.375L17.125 15.3438ZM7.03125 22.5C7.96875 22.5 8.86458 22.3229 9.71875 21.9688C10.5729 21.6146 11.3333 21.1042 12 20.4375L15.3438 17.125L5.375 7.15625L2.0625 10.5C1.39583 11.1667 0.885417 11.9271 0.53125 12.7812C0.177083 13.6354 0 14.5312 0 15.4688C0 17.4271 0.682292 19.0885 2.04688 20.4531C3.41146 21.8177 5.07292 22.5 7.03125 22.5Z" fill="white"/>
</svg>
