<svg width="16" height="16" viewBox="0 0 16 16" fill="none" xmlns="http://www.w3.org/2000/svg">
    <path d="M5 16C3.60741 16 2.42593 15.5148 1.45556 14.5444C0.485185 13.5741 0 12.3926 0 11C0 10.3333 0.125926 9.6963 0.377778 9.08889C0.62963 8.48148 0.992593 7.94074 1.46667 7.46667L7.46667 1.46667C7.94074 0.992593 8.48148 0.62963 9.08889 0.377778C9.6963 0.125926 10.3333 0 11 0C12.3926 0 13.5741 0.485185 14.5444 1.45556C15.5148 2.42593 16 3.60741 16 5C16 5.66667 15.8741 6.3037 15.6222 6.91111C15.3704 7.51852 15.0074 8.05926 14.5333 8.53333L8.53333 14.5333C8.05926 15.0074 7.51852 15.3704 6.91111 15.6222C6.3037 15.8741 5.66667 16 5 16ZM10.9111 9.64445L13.2889 7.28889C13.5852 6.99259 13.8148 6.64444 13.9778 6.24444C14.1407 5.84444 14.2222 5.42963 14.2222 5C14.2222 4.11111 13.9074 3.35185 13.2778 2.72222C12.6481 2.09259 11.8889 1.77778 11 1.77778C10.5704 1.77778 10.1556 1.85926 9.75556 2.02222C9.35556 2.18519 9.00741 2.41481 8.71111 2.71111L6.35556 5.08889L10.9111 9.64445ZM5 14.2222C5.42963 14.2222 5.84444 14.1407 6.24444 13.9778C6.64444 13.8148 6.99259 13.5852 7.28889 13.2889L9.64445 10.9111L5.08889 6.35556L2.71111 8.71111C2.41481 9.00741 2.18519 9.35556 2.02222 9.75556C1.85926 10.1556 1.77778 10.5704 1.77778 11C1.77778 11.8889 2.09259 12.6481 2.72222 13.2778C3.35185 13.9074 4.11111 14.2222 5 14.2222Z" fill="#4C7F14"/>
</svg>
