<svg width="16" height="13" viewBox="0 0 16 13" fill="none" xmlns="http://www.w3.org/2000/svg">
    <path d="M3.35714 3.91443H1.64286C1.33975 3.91443 1.04906 4.03484 0.834735 4.24916C0.620408 4.46349 0.5 4.75418 0.5 5.05729V7.343C0.5 7.6461 0.620408 7.93679 0.834735 8.15112C1.04906 8.36545 1.33975 8.48586 1.64286 8.48586H3.35714V3.91443Z" stroke="#4A90E2" stroke-linecap="round" stroke-linejoin="round"/>
    <path d="M3.35718 8.48589L7.82575 11.6973C7.99131 11.8119 8.1842 11.8807 8.38488 11.8967C8.58557 11.9128 8.78694 11.8755 8.96861 11.7887C9.16563 11.7002 9.33354 11.5577 9.45287 11.3777C9.57221 11.1977 9.6381 10.9875 9.64289 10.7716V1.62875C9.64778 1.42351 9.5973 1.22075 9.49674 1.04177C9.39619 0.862786 9.24929 0.714193 9.07146 0.611605C8.8898 0.52483 8.68843 0.487585 8.48774 0.50364C8.28705 0.519695 8.09417 0.58848 7.92861 0.703033L3.35718 3.91446" stroke="#4A90E2" stroke-linecap="round" stroke-linejoin="round"/>
    <path d="M14.2144 2.77161C15.009 3.73227 15.4165 4.95488 15.3572 6.20018C15.34 7.61161 14.9454 8.99273 14.2144 10.2002" stroke="#4A90E2" stroke-linecap="round" stroke-linejoin="round"/>
    <path d="M11.9285 4.48584C12.3258 4.96617 12.5295 5.57748 12.4999 6.20013C12.5295 6.82278 12.3258 7.43408 11.9285 7.91441" stroke="#4A90E2" stroke-linecap="round" stroke-linejoin="round"/>
</svg>
