<svg width="24" height="25" viewBox="0 0 24 25" fill="none" xmlns="http://www.w3.org/2000/svg">
    <path d="M0 25V22.5H2.5V18.5C1.77083 18.25 1.17188 17.8073 0.703125 17.1719C0.234375 16.5365 0 15.8125 0 15V5H7.5V15C7.5 15.8125 7.26562 16.5365 6.79688 17.1719C6.32812 17.8073 5.72917 18.25 5 18.5V22.5H7.5V25H0ZM2.5 11.25H5V7.5H2.5V11.25ZM3.75 16.25C4.10417 16.25 4.40104 16.1302 4.64062 15.8906C4.88021 15.651 5 15.3542 5 15V13.75H2.5V15C2.5 15.3542 2.61979 15.651 2.85938 15.8906C3.09896 16.1302 3.39583 16.25 3.75 16.25ZM12.5 25C11.8125 25 11.224 24.7552 10.7344 24.2656C10.2448 23.776 10 23.1875 10 22.5V10.5625C10 10.0208 10.1562 9.53646 10.4688 9.10938C10.7812 8.68229 11.1875 8.375 11.6875 8.1875L12.875 7.75C13.1667 7.64583 13.3854 7.49479 13.5312 7.29688C13.6771 7.09896 13.75 6.85417 13.75 6.5625V1.25C13.75 0.895833 13.8698 0.598958 14.1094 0.359375C14.349 0.119792 14.6458 0 15 0H18.75C19.1042 0 19.401 0.119792 19.6406 0.359375C19.8802 0.598958 20 0.895833 20 1.25V6.5625C20 6.85417 20.0729 7.09896 20.2188 7.29688C20.3646 7.49479 20.5833 7.64583 20.875 7.75L22.0625 8.1875C22.5625 8.375 22.9688 8.68229 23.2812 9.10938C23.5938 9.53646 23.75 10.0208 23.75 10.5625V22.5C23.75 23.1875 23.5052 23.776 23.0156 24.2656C22.526 24.7552 21.9375 25 21.25 25H12.5ZM16.25 3.75H17.5V2.5H16.25V3.75ZM12.5 12.5H21.25V10.5625L20.0625 10.125C19.2708 9.83333 18.6458 9.375 18.1875 8.75C17.7292 8.125 17.5 7.41667 17.5 6.625V6.25H16.25V6.625C16.25 7.41667 16.0208 8.125 15.5625 8.75C15.1042 9.375 14.4792 9.83333 13.6875 10.125L12.5 10.5625V12.5ZM12.5 22.5H21.25V20H12.5V22.5ZM12.5 17.5H21.25V15H12.5V17.5ZM12.5 17.5V15V17.5Z" fill="#191C1E"/>
</svg>
